<?xml version="1.0" standalone="no"?>
<!DOCTYPE svg PUBLIC "-//W3C//DTD SVG 20010904//EN"
 "http://www.w3.org/TR/2001/REC-SVG-20010904/DTD/svg10.dtd">
<svg version="1.0" xmlns="http://www.w3.org/2000/svg"
 width="16.000000pt" height="16.000000pt" viewBox="0 0 16.000000 16.000000"
 preserveAspectRatio="xMidYMid meet">
<metadata>
Created by potrace 1.11, written by Peter Selinger 2001-2013
</metadata>
<g transform="translate(0.000000,16.000000) scale(0.002500,-0.002500)"
fill="#000000" stroke="none">
<path d="M3413 6280 c-89 -11 -205 -41 -315 -80 l-84 -29 -64 20 c-163 51
-405 67 -585 40 -426 -65 -868 -304 -1257 -679 -93 -90 -308 -332 -308 -347 0
-3 21 4 47 14 140 55 207 80 209 78 0 -1 -7 -49 -18 -107 -24 -136 -27 -393
-5 -500 l15 -74 -60 -134 c-127 -287 -205 -583 -262 -993 -7 -45 -10 -48 -86
-98 -44 -28 -109 -82 -146 -118 -64 -64 -156 -191 -169 -233 -4 -11 -10 -20
-14 -20 -4 0 -31 39 -59 87 l-52 88 0 -45 c0 -63 26 -246 51 -370 26 -123 38
-154 39 -93 0 22 7 103 15 180 15 131 18 142 58 213 51 91 214 258 301 310
l59 34 45 -54 c25 -30 109 -118 186 -196 138 -137 281 -252 472 -379 l90 -60
7 -135 c18 -364 119 -741 269 -997 l35 -59 -205 -188 -204 -189 -53 17 c-90
28 -363 169 -418 215 -16 13 -17 13 -11 -3 13 -35 338 -206 434 -229 50 -11
56 -17 113 -92 83 -109 148 -187 226 -269 55 -56 60 -65 34 -52 -53 27 -224
136 -302 194 -41 30 -80 55 -87 56 -7 1 -17 6 -21 11 -4 4 -2 5 6 0 10 -6 12
-4 7 4 -5 7 -14 10 -21 7 -8 -3 -19 3 -27 12 -12 16 -11 16 7 2 15 -11 14 -7
-4 13 -25 28 -43 38 -21 12 14 -17 0 -21 -16 -5 -7 7 -11 7 -12 -2 0 -7 -9
-39 -18 -70 -15 -50 -16 -66 -5 -113 56 -249 513 -459 1181 -542 209 -26 793
-26 1000 0 257 32 464 77 678 148 115 38 155 57 95 43 -22 -4 -25 -3 -13 5 20
14 3 13 -40 -4 -25 -10 -29 -14 -15 -15 17 -1 17 -3 -5 -11 -13 -6 -34 -8 -45
-5 -11 3 -59 -6 -105 -19 -47 -13 -76 -24 -65 -25 15 -1 12 -4 -10 -11 -16 -5
-40 -7 -52 -4 -12 3 -72 -4 -135 -14 -258 -44 -596 -52 -872 -20 l-110 13 137
27 c151 29 269 64 373 108 54 23 73 27 98 20 57 -17 278 -22 406 -10 363 35
816 179 1166 372 76 42 89 46 78 27 -4 -8 -3 -10 2 -5 5 5 9 14 9 20 0 7 8 11
18 11 9 -1 15 2 12 6 -3 5 5 12 17 16 31 9 169 126 276 233 84 83 232 246 232
256 0 4 -95 -30 -167 -60 -20 -8 -37 -15 -39 -15 -2 0 -4 17 -4 38 0 122 -54
323 -140 515 l-51 116 70 143 c124 254 200 457 245 658 25 113 53 286 58 364
3 38 5 40 48 51 147 38 321 176 438 349 l52 78 50 -103 c27 -57 63 -140 80
-184 l31 -80 -5 150 c-6 187 -37 401 -84 593 -34 136 -39 147 -60 147 -20 0
-30 16 -72 118 -202 488 -566 905 -990 1136 -59 32 -78 49 -122 112 -77 110
-256 284 -368 358 -99 65 -305 172 -400 209 -184 71 -515 114 -697 92z m-588
-73 c151 -35 185 -48 192 -76 3 -14 34 -136 69 -271 42 -166 58 -246 50 -249
-6 -2 -52 -25 -102 -51 -118 -61 -244 -145 -369 -244 -115 -92 -371 -345 -464
-458 l-64 -78 -56 8 c-31 4 -157 7 -281 7 -179 -1 -242 -4 -310 -19 -113 -24
-278 -80 -361 -121 l-67 -34 -13 67 c-20 98 -17 382 5 502 10 52 19 100 20
107 4 22 145 238 234 359 94 128 116 148 259 242 247 161 528 273 798 317 108
17 369 13 460 -8z m472 -607 c147 -20 338 -62 458 -101 134 -44 381 -161 495
-236 41 -26 87 -54 102 -60 22 -10 42 -43 97 -155 166 -343 251 -678 251 -991
l0 -94 -60 -37 c-91 -56 -283 -198 -400 -296 -100 -84 -340 -322 -427 -422
l-40 -48 -244 86 c-298 104 -810 269 -976 314 -80 22 -123 38 -123 47 0 17
-268 1152 -275 1162 -7 12 185 229 308 347 210 202 400 342 595 441 115 57
121 58 239 43z m1692 -102 c440 -240 803 -666 1006 -1178 l38 -95 5 -237 5
-238 -41 -63 c-98 -150 -230 -273 -357 -333 -120 -57 -118 -58 -237 81 -57 65
-143 155 -193 198 -106 94 -286 214 -412 277 l-92 45 0 134 c-2 316 -100 681
-273 1013 l-45 88 251 174 c138 96 255 175 260 175 5 1 43 -18 85 -41z m-2352
-1973 c103 -31 399 -126 657 -213 372 -124 470 -161 477 -177 5 -11 70 -276
144 -588 l135 -568 -47 -62 c-171 -225 -404 -465 -578 -595 -60 -45 -160 -108
-222 -139 l-112 -57 -156 17 c-401 44 -673 142 -997 359 -48 32 -92 58 -97 58
-13 0 -114 201 -156 311 -76 197 -125 434 -146 695 l-12 151 89 85 c356 341
819 778 825 778 4 0 92 -25 196 -55z m2536 -1552 c82 -177 137 -378 137 -504
0 -66 -13 -92 -161 -309 l-77 -115 -124 -67 c-519 -283 -998 -417 -1444 -406
-93 3 -179 10 -190 16 -13 7 -52 94 -120 268 l-101 258 72 31 c223 97 532 363
770 665 50 62 99 124 110 137 20 24 20 24 124 12 160 -17 481 -7 611 20 103
22 310 78 319 87 15 15 33 -7 74 -93z m-1016 -1459 c-3 -3 -12 -4 -19 -1 -8 3
-5 6 6 6 11 1 17 -2 13 -5z m-112 -33 c-11 -5 -36 -11 -55 -14 -35 -6 -34 -6
5 8 43 14 84 19 50 6z m-98 -27 c-3 -3 -12 -4 -19 -1 -8 3 -5 6 6 6 11 1 17
-2 13 -5z m-134 -31 c-7 -2 -19 -2 -25 0 -7 3 -2 5 12 5 14 0 19 -2 13 -5z
m-50 -10 c-7 -2 -19 -2 -25 0 -7 3 -2 5 12 5 14 0 19 -2 13 -5z m-60 -10 c-7
-2 -19 -2 -25 0 -7 3 -2 5 12 5 14 0 19 -2 13 -5z m-60 -10 c-7 -2 -21 -2 -30
0 -10 3 -4 5 12 5 17 0 24 -2 18 -5z m-80 -10 c-7 -2 -21 -2 -30 0 -10 3 -4 5
12 5 17 0 24 -2 18 -5z m-105 -10 c-10 -2 -28 -2 -40 0 -13 2 -5 4 17 4 22 1
32 -1 23 -4z"/>
<path d="M1085 1240 c44 -44 82 -80 85 -80 2 0 -31 36 -75 80 -44 44 -82 80
-85 80 -2 0 31 -36 75 -80z"/>
<path d="M1200 1137 c0 -2 15 -16 33 -33 l32 -29 -29 33 c-28 30 -36 37 -36
29z"/>
<path d="M4694 774 c-18 -14 -18 -15 4 -4 12 6 22 13 22 15 0 8 -5 6 -26 -11z"/>
<path d="M4588 719 c-21 -11 -38 -22 -38 -24 0 -3 18 4 40 15 22 11 40 23 40
25 0 7 0 7 -42 -16z"/>
<path d="M4470 660 c-19 -11 -30 -19 -25 -19 6 0 26 8 45 19 19 11 31 19 25
19 -5 0 -26 -8 -45 -19z"/>
<path d="M4370 615 c-14 -8 -20 -14 -15 -14 6 0 21 6 35 14 14 8 21 14 15 14
-5 0 -21 -6 -35 -14z"/>
<path d="M4310 590 c-8 -5 -10 -10 -5 -10 6 0 17 5 25 10 8 5 11 10 5 10 -5 0
-17 -5 -25 -10z"/>
<path d="M4245 566 l-30 -13 32 1 c17 1 29 4 27 8 -2 3 2 9 8 11 7 3 9 6 3 6
-5 0 -23 -6 -40 -13z"/>
<path d="M3848 443 c7 -3 16 -2 19 1 4 3 -2 6 -13 5 -11 0 -14 -3 -6 -6z"/>
</g>
</svg>
